<svg xmlns="http://www.w3.org/2000/svg" viewBox="0 0 512 512">
  <defs>
    <radialGradient id="bg" cx="50%" cy="45%" r="58%">
      <stop offset="0" stop-color="#17345c"/>
      <stop offset="1" stop-color="#070b18"/>
    </radialGradient>
    <linearGradient id="fur" x1="0" y1="0" x2="1" y2="1">
      <stop stop-color="#d9f6ff"/>
      <stop offset="1" stop-color="#5fd3ff"/>
    </linearGradient>
  </defs>
  <rect width="512" height="512" rx="72" fill="url(#bg)"/>
  <circle cx="256" cy="263" r="164" fill="#07111f" stroke="#63dcff" stroke-width="8"/>
  <path d="M151 178 117 75l113 73M361 178 395 75 282 148" fill="url(#fur)" stroke="#a9f0ff" stroke-width="8" stroke-linejoin="round"/>
  <path d="M256 134c-87 0-143 60-143 148 0 91 66 150 143 150s143-59 143-150c0-88-56-148-143-148Z" fill="url(#fur)" stroke="#d8f8ff" stroke-width="8"/>
  <path d="M153 285c45-30 161-30 206 0-9 89-60 137-103 137s-94-48-103-137Z" fill="#e9fbff" opacity=".86"/>
  <path d="M171 271c24-28 54-32 76-9-24 28-54 32-76 9Zm170 0c-24-28-54-32-76-9 24 28 54 32 76 9Z" fill="#08152b"/>
  <circle cx="210" cy="266" r="9" fill="#72e8ff"/><circle cx="302" cy="266" r="9" fill="#72e8ff"/>
  <path d="m256 304-19 17 19 13 19-13Z" fill="#14305a"/>
  <path d="M206 351c27 28 73 28 100 0" fill="none" stroke="#14305a" stroke-width="8" stroke-linecap="round"/>
  <path d="M256 94v51M230 110l26-42 26 42" fill="none" stroke="#e9fcff" stroke-width="8" stroke-linecap="round" stroke-linejoin="round"/>
</svg>
